<svg id="Group_113" data-name="Group 113" xmlns="http://www.w3.org/2000/svg" width="65.193" height="102.371" viewBox="0 0 65.193 102.371">
  <defs>
    <style>
      .cls-1 {
        fill: #fff;
      }
    </style>
  </defs>
  <path id="Path_29" data-name="Path 29" class="cls-1" d="M1.75,13.9,32.719,41.811,63.443,13.9V-26.748L32.719-56.418,1.75-26.748ZM32.721,43.865a.875.875,0,0,1-.586-.226L.289,14.936A.876.876,0,0,1,0,14.287V-27.12a.881.881,0,0,1,.269-.632l31.845-30.51a.876.876,0,0,1,1.214,0l31.6,30.51a.872.872,0,0,1,.268.63V14.287a.88.88,0,0,1-.287.647l-31.6,28.7a.869.869,0,0,1-.588.227" transform="translate(0 58.506)"/>
  <path id="Path_30" data-name="Path 30" class="cls-1" d="M64.317-39.319H.875A.875.875,0,0,1,0-40.194a.875.875,0,0,1,.875-.875H64.317a.875.875,0,0,1,.875.875.875.875,0,0,1-.875.875" transform="translate(0 71.58)"/>
  <path id="Path_31" data-name="Path 31" class="cls-1" d="M64.317-15.655H.875A.875.875,0,0,1,0-16.529.875.875,0,0,1,.875-17.4H64.317a.875.875,0,0,1,.875.875.875.875,0,0,1-.875.875" transform="translate(0 89.323)"/>
  <path id="Path_32" data-name="Path 32" class="cls-1" d="M25.707,43.865a.873.873,0,0,1-.768-.458L9.462,14.908a.867.867,0,0,1-.107-.416V-9.172a.875.875,0,0,1,.875-.875.874.874,0,0,1,.875.875V14.27l14.6,26.888L40.359,14.27V-27.317L25.709-55.72l-14.6,28.4v8.693a.874.874,0,0,1-.875.875.875.875,0,0,1-.875-.875v-8.9a.864.864,0,0,1,.1-.4l15.477-30.1a.872.872,0,0,1,.777-.474.871.871,0,0,1,.777.474l15.527,30.1a.886.886,0,0,1,.1.4v42.02A.85.85,0,0,1,42,14.91l-15.527,28.5a.873.873,0,0,1-.768.457" transform="translate(7.014 58.507)"/>
</svg>
