<?xml version="1.0" encoding="UTF-8" standalone="no"?>
<!DOCTYPE svg PUBLIC "-//W3C//DTD SVG 1.1//EN" "http://www.w3.org/Graphics/SVG/1.1/DTD/svg11.dtd">
<svg width="100%" height="100%" viewBox="0 0 60 47" version="1.1" xmlns="http://www.w3.org/2000/svg" xmlns:xlink="http://www.w3.org/1999/xlink" xml:space="preserve" xmlns:serif="http://www.serif.com/" style="fill-rule:evenodd;clip-rule:evenodd;stroke-linejoin:round;stroke-miterlimit:2;">
    <g id="Group_802" transform="matrix(1,0,0,1,-919.707,-485.258)">
        <g transform="matrix(1,0,0,1,867.052,388.984)">
            <g id="Group_612">
                <path id="Path_299" d="M97.975,111.26L96.364,114.108L58.332,114.108C56.733,114.125 55.431,115.453 55.446,117.052L55.446,137.325C55.431,138.924 56.733,140.252 58.332,140.269L98.988,140.269C100.587,140.252 101.889,138.924 101.874,137.325L101.874,117.052C101.875,116.648 101.793,116.248 101.634,115.876L103.196,113.166C104.145,114.237 104.668,115.621 104.665,117.052L104.665,137.325C104.695,140.47 102.133,143.084 98.988,143.117L58.332,143.117C55.187,143.084 52.625,140.47 52.655,137.325L52.655,117.052C52.625,113.907 55.187,111.293 58.332,111.26L97.975,111.26Z" style="fill:rgb(221,202,102);"/>
            </g>
        </g>
        <g id="Group_613" transform="matrix(1,0,0,1,926.774,509.066)">
            <rect id="Rectangle_460" x="0" y="0" width="18.016" height="2.921" style="fill:rgb(221,202,102);"/>
        </g>
        <g id="Group_614" transform="matrix(1,0,0,1,926.774,514.285)">
            <rect id="Rectangle_461" x="0" y="0" width="18.016" height="2.921" style="fill:rgb(221,202,102);"/>
        </g>
        <g id="Group_615" transform="matrix(1,0,0,1,953.435,519.678)">
            <rect id="Rectangle_462" x="0" y="0" width="10.231" height="2.921" style="fill:rgb(221,202,102);"/>
        </g>
        <g transform="matrix(1,0,0,1,784.733,421.926)">
            <g id="Group_616">
                <path id="Path_300" d="M184.575,65.884C185.462,64.31 187.135,63.333 188.942,63.333C189.839,63.333 190.72,63.574 191.493,64.031C193.913,65.474 194.752,68.627 193.371,71.083L181.582,91.913L172.782,86.728L184.567,65.9C184.481,66.052 184.402,66.209 184.332,66.369L184.567,65.9L184.575,65.884ZM191.568,70C192.362,68.559 191.862,66.722 190.447,65.882C189.992,65.612 189.473,65.469 188.944,65.469C187.883,65.469 186.901,66.043 186.381,66.967L191.559,70.017L191.568,70ZM186.212,67.316L186.221,67.294L186.212,67.316ZM193.078,71.546L193.087,71.533L193.078,71.546ZM184.321,66.395L184.321,66.39L184.321,66.395ZM193.069,71.558L193.075,71.55L193.067,71.561L193.069,71.558ZM186.141,67.508L186.149,67.484L186.141,67.508ZM193.058,71.574L193.058,71.568L193.05,71.578L193.058,71.574ZM184.305,66.434L184.305,66.427L184.305,66.434ZM186.129,67.547L186.137,67.523L186.129,67.547ZM186.117,67.585L186.124,67.561L186.117,67.585ZM186.085,67.701L186.091,67.678L186.085,67.701ZM184.12,66.949L184.159,66.827C184.143,66.865 184.13,66.905 184.118,66.946L184.12,66.949ZM190.693,70.978L190.701,70.973L190.688,70.982L190.693,70.978ZM189.385,71.478C189.839,71.421 190.273,71.257 190.651,71C190.272,71.258 189.838,71.422 189.383,71.479L189.385,71.478ZM184.029,67.284L184.029,67.273L184.029,67.284ZM183.935,67.817L183.935,67.783L183.935,67.817ZM183.908,68.098L183.908,68.067L183.908,68.098ZM186.25,69.666L186.25,69.66L186.25,69.666ZM176.019,85.842L180.713,88.607L190.129,71.969L189.311,71.487L185.436,69.2L176.019,85.842ZM183.898,68.607L183.898,68.482C183.9,68.524 183.9,68.566 183.9,68.608L183.898,68.607ZM183.924,68.968L183.916,68.882C183.916,68.91 183.918,68.938 183.921,68.967L183.924,68.968ZM183.929,69.053L183.929,69.04L183.929,69.053ZM183.939,69.145L183.93,69.079C183.936,69.1 183.939,69.123 183.942,69.145L183.939,69.145ZM190.869,73.282L190.875,73.282L190.869,73.282ZM190.852,73.289L190.858,73.289L190.852,73.289ZM183.952,69.236L183.952,69.224L183.952,69.236ZM190.835,73.296L190.841,73.296L190.835,73.296ZM183.958,69.273L183.958,69.26L183.958,69.273ZM190.738,73.333L190.745,73.333L190.738,73.333ZM190.686,73.352L190.693,73.352L190.686,73.352ZM183.986,69.413L183.986,69.402L183.986,69.413ZM190.655,73.364L190.662,73.364L190.655,73.364ZM184.01,69.534L184.01,69.524L184.01,69.534ZM190.557,73.397L190.565,73.397L190.557,73.397ZM184.014,69.552L184.014,69.542L184.014,69.552ZM190.54,73.403L190.548,73.403L190.54,73.403ZM184.022,69.589L184.022,69.579L184.022,69.589ZM184.03,69.626L184.03,69.616L184.03,69.626ZM190.406,73.444L190.415,73.444L190.406,73.444ZM184.054,69.727L184.054,69.718L184.054,69.727ZM190.354,73.46L190.363,73.46L190.354,73.46ZM184.066,69.76L184.066,69.751L184.066,69.76ZM184.066,69.778L184.066,69.769L184.066,69.778ZM184.076,69.815L184.076,69.806L184.076,69.815ZM190.251,73.482L190.264,73.482L190.251,73.482ZM184.088,69.859L184.088,69.851L184.088,69.859ZM190.2,73.5L190.21,73.5L190.2,73.5ZM184.108,69.919L184.108,69.91L184.108,69.919ZM190.18,73.5L190.189,73.5L190.18,73.5ZM184.111,69.933L184.111,69.924L184.111,69.933ZM184.122,69.97L184.122,69.962L184.122,69.97ZM184.165,70.105L184.165,70.097L184.165,70.105ZM184.171,70.123L184.171,70.115L184.171,70.123ZM184.183,70.159L184.183,70.152L184.183,70.159ZM189.932,73.559L189.944,73.559L189.932,73.559ZM184.221,70.258L184.221,70.25L184.221,70.258ZM184.234,70.294L184.234,70.286L184.234,70.294ZM184.241,70.312L184.241,70.304L184.241,70.312ZM189.717,73.592L189.735,73.592L189.717,73.592ZM184.27,70.392L184.27,70.386L184.27,70.392ZM184.285,70.429L184.285,70.421L184.285,70.429ZM189.54,73.617L189.559,73.617L189.54,73.617ZM184.365,70.612L184.365,70.605L184.365,70.612ZM184.373,70.63L184.373,70.622L184.373,70.63ZM184.381,70.647L184.381,70.64L184.381,70.647ZM184.389,70.664L184.389,70.657L184.389,70.664ZM179.475,90.676L181.581,91.916L172.881,96.916L172.781,86.728L174.836,87.938L174.941,93.282L179.475,90.676Z" style="fill:rgb(221,202,102);"/>
            </g>
        </g>
    </g>
</svg>
