<?xml version="1.0" encoding="UTF-8" standalone="no"?>
<!DOCTYPE svg PUBLIC "-//W3C//DTD SVG 1.1//EN" "http://www.w3.org/Graphics/SVG/1.1/DTD/svg11.dtd">
<svg width="100%" height="100%" viewBox="0 0 85 55" version="1.1" xmlns="http://www.w3.org/2000/svg" xmlns:xlink="http://www.w3.org/1999/xlink" xml:space="preserve" xmlns:serif="http://www.serif.com/" style="fill-rule:evenodd;clip-rule:evenodd;stroke-linejoin:round;stroke-miterlimit:2;">
    <g id="icons" transform="matrix(1,0,0,1,-1137.32,-485.205)">
        <g id="Group_620" transform="matrix(1,0,0,1,1178.02,513.26)">
            <g transform="matrix(1,0,0,1,-27.604,-54.788)">
                <g id="Group_617">
                    <path id="Path_301" d="M71.586,59.649C71.601,56.999 69.436,54.806 66.786,54.787L32.406,54.787C29.756,54.806 27.591,56.999 27.606,59.649L27.606,76.665C27.591,79.314 29.757,81.507 32.406,81.526L66.784,81.526C69.433,81.507 71.599,79.314 71.584,76.665L71.586,59.649ZM69.226,59.649L69.226,76.665C69.234,78.012 68.132,79.127 66.785,79.136L32.406,79.136C31.059,79.127 29.957,78.012 29.965,76.665L29.965,59.649C29.957,58.301 31.058,57.186 32.406,57.177L66.784,57.177C68.132,57.186 69.233,58.301 69.225,59.649L69.226,59.649Z" style="fill:rgb(221,202,102);"/>
                </g>
            </g>
            <g transform="matrix(1,0,0,1,15.853,27.873)">
                <g id="Group_618">
                    <path id="Path_302" d="M3.114,-14.494L0.57,-14.494L0.57,-15.841L11.87,-15.841L11.87,-14.494L9.106,-14.494L9.106,-11.12C9.103,-11.012 9.145,-10.908 9.222,-10.832C9.296,-10.754 9.399,-10.711 9.506,-10.714L11.882,-10.714L11.3,-9.5L8.616,-9.5C8.444,-9.5 8.274,-9.534 8.116,-9.6C7.958,-9.666 7.816,-9.765 7.7,-9.891C7.58,-10.006 7.483,-10.144 7.416,-10.296C7.349,-10.458 7.315,-10.631 7.316,-10.806L7.316,-14.494L5,-14.494L2.766,-9.512L0.88,-9.512L3.114,-14.494ZM1.009,-18.9L11.431,-18.9L11.431,-17.553L1.009,-17.553L1.009,-18.9Z" style="fill:rgb(221,202,102);fill-rule:nonzero;"/>
                </g>
            </g>
            <g transform="matrix(1,0,0,1,-64.092,-65.269)">
                <g id="Group_619">
                    <path id="Path_303" d="M86.083,68.626C86.125,68.625 86.166,68.625 86.208,68.625C91.702,68.625 96.222,73.146 96.222,78.639C96.222,84.133 91.702,88.653 86.208,88.653C80.715,88.653 76.194,84.133 76.194,78.64C76.163,73.182 80.625,68.663 86.083,68.626ZM86.083,70.449C86.128,70.448 86.173,70.448 86.218,70.448C90.711,70.448 94.409,74.145 94.409,78.639C94.409,83.132 90.711,86.83 86.218,86.83C81.725,86.83 78.027,83.132 78.027,78.639C77.993,74.184 81.628,70.488 86.083,70.449Z" style="fill:rgb(221,202,102);"/>
                </g>
            </g>
        </g>
        <g id="Group_625" transform="matrix(1,0,0,1,1137.32,485.205)">
            <g transform="matrix(1,0,0,1,-27.604,-54.788)">
                <g id="Group_621">
                    <path id="Path_304" d="M71.586,59.649C71.601,56.999 69.436,54.806 66.786,54.787L32.406,54.787C29.756,54.806 27.591,56.999 27.606,59.649L27.606,76.665C27.591,79.314 29.757,81.507 32.406,81.526L66.784,81.526C69.433,81.507 71.599,79.314 71.584,76.665L71.586,59.649ZM69.226,59.649L69.226,76.665C69.234,78.012 68.132,79.127 66.785,79.136L32.406,79.136C31.059,79.127 29.957,78.012 29.965,76.665L29.965,59.649C29.957,58.301 31.058,57.186 32.406,57.177L66.784,57.177C68.132,57.186 69.233,58.301 69.225,59.649L69.226,59.649Z" style="fill:rgb(221,202,102);"/>
                </g>
            </g>
            <g id="Group_622" transform="matrix(1,0,0,1,5.505,6.779)">
                <rect id="Rectangle_463" x="0" y="0" width="17.637" height="2.845" style="fill:rgb(221,202,102);"/>
            </g>
            <g id="Group_623" transform="matrix(1,0,0,1,5.505,11.862)">
                <rect id="Rectangle_464" x="0" y="0" width="17.637" height="2.845" style="fill:rgb(221,202,102);"/>
            </g>
            <g id="Group_624" transform="matrix(1,0,0,1,30.046,17.205)">
                <rect id="Rectangle_465" x="0" y="0" width="7.133" height="2.845" style="fill:rgb(221,202,102);"/>
            </g>
        </g>
        <g transform="matrix(1,0,0,1,1090.41,478.396)">
            <g id="Group_626">
                <path id="Path_305" d="M114.073,28.689C114.623,25.224 113.16,21.732 110.305,19.694C105.034,15.721 97.557,17.242 97.557,17.242C97.485,17.256 97.411,17.264 97.338,17.264C96.722,17.264 96.216,16.757 96.216,16.142C96.216,15.609 96.595,15.146 97.118,15.042C97.641,14.938 105.639,13.369 111.654,17.902C114.924,20.238 116.73,24.133 116.4,28.138C117.329,27.292 118.207,26.39 119.028,25.438C119.241,25.198 119.546,25.061 119.866,25.061C120.481,25.061 120.987,25.567 120.987,26.182C120.987,26.441 120.898,26.692 120.734,26.892C119.663,28.138 118.495,29.299 117.243,30.363C116.563,30.984 115.714,31.39 114.803,31.53C113.911,31.428 113.091,30.988 112.514,30.301C111.555,29.227 110.714,28.054 110.005,26.801C109.92,26.64 109.875,26.46 109.875,26.277C109.875,25.662 110.381,25.156 110.996,25.156C111.393,25.156 111.762,25.367 111.963,25.71C112.467,26.597 113.039,27.444 113.675,28.242C113.8,28.393 113.937,28.548 114.073,28.689Z" style="fill:rgb(221,202,102);"/>
            </g>
        </g>
        <g id="Group_627" transform="matrix(-1,-7.65714e-16,7.65714e-16,-1,1173.74,532.434)">
            <path id="Path_306" d="M17.857,13.947C18.407,10.482 16.944,6.99 14.089,4.952C8.818,0.98 1.34,2.5 1.34,2.5C1.268,2.514 1.194,2.522 1.12,2.522C0.505,2.522 -0.002,2.015 -0.002,1.4C-0.002,0.867 0.378,0.404 0.9,0.3C1.422,0.196 9.421,-1.373 15.436,3.16C18.706,5.497 20.511,9.394 20.179,13.4C21.108,12.554 21.986,11.652 22.807,10.7C23.02,10.46 23.325,10.323 23.645,10.323C24.26,10.323 24.766,10.829 24.766,11.444C24.766,11.703 24.677,11.954 24.513,12.154C23.442,13.4 22.274,14.561 21.022,15.625C20.342,16.246 19.493,16.652 18.582,16.792C17.69,16.69 16.87,16.25 16.293,15.563C15.334,14.489 14.493,13.316 13.784,12.063C13.699,11.902 13.654,11.722 13.654,11.539C13.654,10.924 14.16,10.418 14.775,10.418C15.172,10.418 15.541,10.629 15.742,10.972C16.246,11.859 16.818,12.706 17.454,13.504C17.586,13.651 17.721,13.805 17.857,13.947Z" style="fill:rgb(221,202,102);"/>
        </g>
    </g>
</svg>
