<?xml version="1.0" encoding="UTF-8" standalone="no"?>
<!DOCTYPE svg PUBLIC "-//W3C//DTD SVG 1.1//EN" "http://www.w3.org/Graphics/SVG/1.1/DTD/svg11.dtd">
<svg width="100%" height="100%" viewBox="0 0 66 55" version="1.1" xmlns="http://www.w3.org/2000/svg" xmlns:xlink="http://www.w3.org/1999/xlink" xml:space="preserve" xmlns:serif="http://www.serif.com/" style="fill-rule:evenodd;clip-rule:evenodd;stroke-linejoin:round;stroke-miterlimit:2;">
    <g id="Group_801" transform="matrix(1,0,0,1,-679,-485.204)">
        <g id="Path_307" transform="matrix(1,0,0,1,679,399.871)">
            <path d="M61.643,131.908L4.11,131.908C1.857,131.905 0.004,130.053 0,127.8L0,89.443C0.003,87.189 1.856,85.336 4.11,85.333L61.643,85.333C63.897,85.336 65.75,87.189 65.753,89.443L65.753,127.8C65.749,130.053 63.896,131.905 61.643,131.908ZM4.11,88.073C3.358,88.073 2.74,88.691 2.74,89.443L2.74,127.8C2.74,128.552 3.358,129.17 4.11,129.17L61.643,129.17C62.395,129.17 63.013,128.552 63.013,127.8L63.013,89.443C63.013,88.691 62.395,88.073 61.643,88.073L4.11,88.073Z" style="fill:rgb(221,202,102);fill-rule:nonzero;"/>
        </g>
        <g id="Path_308" transform="matrix(1,0,0,1,530.259,102.373)">
            <path d="M191.21,437.626L172.028,437.626C171.276,437.626 170.657,437.007 170.657,436.255C170.657,435.892 170.801,435.543 171.058,435.286C174.663,431.681 174.71,428.186 174.71,428.042C174.713,427.29 175.331,426.671 176.083,426.667L187.1,426.667C187.849,426.666 188.466,427.28 188.47,428.029C188.47,428.202 188.58,431.689 192.18,435.286C192.437,435.543 192.581,435.892 192.581,436.255C192.581,437.007 191.962,437.626 191.21,437.626ZM174.962,434.886L188.269,434.886C187.098,433.248 186.285,431.381 185.885,429.407L177.31,429.407C176.926,431.38 176.126,433.248 174.962,434.886Z" style="fill:rgb(221,202,102);fill-rule:nonzero;"/>
        </g>
        <g id="Group_632" transform="matrix(1,0,0,1,694.793,498.105)">
            <g transform="matrix(1,0,0,1,-83.179,-165.088)">
                <g id="Group_628">
                    <path id="Path_309" d="M117.346,168.865C117.358,166.806 115.675,165.102 113.616,165.088L86.909,165.088C84.85,165.102 83.167,166.806 83.179,168.865L83.179,182.084C83.167,184.143 84.85,185.847 86.909,185.861L113.616,185.861C115.675,185.847 117.358,184.143 117.346,182.084L117.346,168.865ZM115.512,168.865L115.512,182.084C115.512,182.088 115.512,182.091 115.512,182.095C115.512,183.139 114.656,183.999 113.612,184.004L86.909,184.004C85.865,183.999 85.009,183.139 85.009,182.095C85.009,182.091 85.009,182.088 85.009,182.084L85.009,168.865C85.009,168.861 85.009,168.858 85.009,168.854C85.009,167.81 85.865,166.95 86.909,166.945L113.616,166.945C114.662,166.952 115.518,167.818 115.512,168.865Z" style="fill:rgb(221,202,102);"/>
                </g>
            </g>
            <g id="Group_629" transform="matrix(1,0,0,1,4.277,5.267)">
                <rect id="Rectangle_466" x="0" y="0" width="13.702" height="2.21" style="fill:rgb(221,202,102);"/>
            </g>
            <g id="Group_630" transform="matrix(1,0,0,1,4.277,9.215)">
                <rect id="Rectangle_467" x="0" y="0" width="13.702" height="2.21" style="fill:rgb(221,202,102);"/>
            </g>
            <g id="Group_631" transform="matrix(1,0,0,1,23.341,13.366)">
                <rect id="Rectangle_468" x="0" y="0" width="5.541" height="2.21" style="fill:rgb(221,202,102);"/>
            </g>
        </g>
    </g>
</svg>
